<svg id="Layer_1" enable-background="new 0 0 460.581 460.581" height="512" viewBox="0 0 460.581 460.581" width="512" xmlns="http://www.w3.org/2000/svg"><path d="m310.604 218.459c-5.527-7.725-17.032-7.62-22.48.2-11.045 15.855-17.787 35.889-17.845 56.733v-70.632c0-6.12 1.18-12.19 3.45-17.87 3.52-8.77 9.244-23.072 9.34-23.34 1.841-5.15 3-10.5 3.13-15.96.043-2.293-.571-55.073-.64-60.25-.46-32.93-16.14-64.05-42.95-83.17-7.99-5.71-17.15-5.23-23.86-.53-27.89 19.55-43.24 51.23-43.69 83.7-.03 2.65-.67 59.73-.66 60.27.155 6.036 1.456 11.875 3.44 16.74l9.04 22.54c2.28 5.68 3.46 11.75 3.46 17.87v70.893c-.01-20.253-6.085-40.083-17.659-56.692-6.035-8.661-17.431-7.793-22.67-.47-12.14 16.97-18.67 37.31-18.67 58.17v167.92c0 8.84 7.16 16 16 16h27c8.798 0 16-7.114 16-16.013.01 8.832 7.165 15.982 15.999 15.982h47.94c8.823 0 15.969-7.132 15.997-15.948.028 8.816 7.175 15.948 15.997 15.948h27c8.84 0 16-7.16 16-16v-167.92c.001-20.86-6.529-41.201-18.669-58.171z" fill="#cbe3fa"/><path d="m311.74 219.061c1.621 2.365 1.171 5.526-.911 7.497-9.552 9.036-20.549 35.363-20.519 60.072.118 99.216-.102 140.189-.061 157.982.03 12.734-19.151 13.619-19.911.907-.045-.753-.029-52.788-.029-168.889 0-20.86 6.53-41.2 18.67-58.17 5.28-7.38 16.765-8.15 22.761.601z" fill="#eef7ff"/><path d="m242.889 4.37c7.897 5.672 7.817 17.345.104 23.265-17.443 13.389-37.427 43.181-37.934 79.704-.03 2.65-.47 40.49-.67 58.63-.114 6.275 1.258 13.005 3.45 18.38l9.04 22.54c2.28 5.68 3.46 11.75 3.46 17.87v221.79c0 7.732-6.268 14-14 14-8.837 0-16-7.163-16-16v-239.789c0-6.12-1.181-12.19-3.46-17.87-7.329-18.269-9.141-22.775-9.35-23.34-1.94-5.1-2.99-10.49-3.13-15.94-.034-1.828-.053 2.669.66-60.27.45-32.47 15.8-64.15 43.69-83.7 6.875-4.816 15.981-5.13 24.14.73z" fill="#eef7ff"/><path d="m285.888 152.041c-.345 2.956-.963 5.875-1.852 8.72-.52 1.664-2.077 2.788-3.82 2.788h-99.829c-1.744 0-3.303-1.125-3.821-2.791-.884-2.839-1.501-5.753-1.848-8.703-.28-2.376 1.575-4.468 3.967-4.475 17.765-.054 85.478-.05 103.234-.011 2.391.006 4.246 2.096 3.969 4.472z" fill="#b5d5f5"/><g fill="#ff6d7a"><path d="m244.309 98.55h-28c-4.418 0-8-3.582-8-8s3.582-8 8-8h28c4.418 0 8 3.582 8 8s-3.582 8-8 8z"/><path d="m230.309 427.55c-4.418 0-8-3.582-8-8v-.709c0-4.418 3.582-8 8-8s8 3.582 8 8v.709c0 4.418-3.582 8-8 8z"/><path d="m230.309 396.13c-4.418 0-8-3.582-8-8v-45.58c0-4.418 3.582-8 8-8s8 3.582 8 8v45.581c0 4.418-3.582 7.999-8 7.999z"/></g><path d="m206.309 309.55h-32c-4.418 0-8-3.582-8-8s3.582-8 8-8h32c4.418 0 8 3.582 8 8s-3.581 8-8 8z" fill="#585966"/><path d="m286.309 309.55h-32c-4.418 0-8-3.582-8-8s3.582-8 8-8h32c4.418 0 8 3.582 8 8s-3.582 8-8 8z" fill="#585966"/><path d="m172.74 219.061c1.621 2.365 1.171 5.526-.911 7.497-9.552 9.036-20.549 35.363-20.519 60.072.118 99.216-.102 140.189-.061 157.982.03 12.734-19.151 13.619-19.911.907-.045-.753-.029-52.788-.029-168.889 0-20.86 6.53-41.2 18.67-58.17 5.28-7.38 16.765-8.15 22.761.601z" fill="#eef7ff"/></svg>