<?xml version="1.0" encoding="UTF-8" standalone="no"?>
<!-- Created with Inkscape (http://www.inkscape.org/) -->

<svg
   version="1.1"
   id="svg7413"
   xml:space="preserve"
   width="682.66669"
   height="682.66669"
   viewBox="0 0 682.66669 682.66669"
   xmlns="http://www.w3.org/2000/svg"
   xmlns:svg="http://www.w3.org/2000/svg"><defs
     id="defs7417"><clipPath
       clipPathUnits="userSpaceOnUse"
       id="clipPath7427"><path
         d="M 0,512 H 512 V 0 H 0 Z"
         id="path7425" /></clipPath></defs><g
     id="g7419"
     transform="matrix(1.3333333,0,0,-1.3333333,0,682.66667)"><g
       id="g7421"><g
         id="g7423"
         clip-path="url(#clipPath7427)"><g
           id="g7429"
           transform="translate(262.2156,67.994)"><path
             d="m 0,0 c -1.994,0.31 -4.074,0.464 -6.216,0.464 -14.607,0 -26.449,-6.951 -26.449,-24.483 0,-5.83 2.927,-12.096 6.832,-17.863 C -25.139,-41.806 21.49,-41.376 0,0"
             style="fill:#f4daa7;fill-opacity:1;fill-rule:nonzero;stroke:none"
             id="path7431" /></g><g
           id="g7433"
           transform="translate(262.2156,67.994)"><path
             d="m 0,0 c 0.148,-1.275 0.233,-2.608 0.233,-4.018 0,-14.338 -17.692,-31.313 -24.137,-37.02 -0.558,-0.495 -1.235,-0.768 -1.929,-0.844 4.517,-6.671 10.342,-12.675 14.469,-16.565 2.896,-2.729 7.401,-2.729 10.297,0 7.695,7.252 21.301,21.854 21.301,34.428 C 20.234,-9.058 11.607,-1.806 0,0"
             style="fill:#f1cd88;fill-opacity:1;fill-rule:nonzero;stroke:none"
             id="path7435" /></g><g
           id="g7437"
           transform="translate(363.2222,236.785)"><path
             d="m 0,0 -18.255,18.255 -15.026,-64.04 39.53,-28.588 z"
             style="fill:#df646e;fill-opacity:1;fill-rule:nonzero;stroke:none"
             id="path7439" /></g><g
           id="g7441"
           transform="translate(344.9673,185.6151)"><path
             d="m 0,0 v 69.425 l -16.639,16.639 -5.802,-89.624 40.696,-40.697 4.363,21.639 z"
             style="fill:#dc4955;fill-opacity:1;fill-rule:nonzero;stroke:none"
             id="path7443" /></g><g
           id="g7445"
           transform="translate(377.582,277.5696)"><path
             d="M 0,0 C -4.233,6.526 -14.36,3.521 -14.36,-4.258 V -163.01 l 95.19,1.97 -12.127,99.622 C 41.583,-57.218 15.485,-23.872 0,0"
             style="fill:#d2e4e7;fill-opacity:1;fill-rule:nonzero;stroke:none"
             id="path7447" /></g><g
           id="g7449"
           transform="translate(363.2222,114.5597)"><path
             d="m 0,0 v -18.061 c 0,-6.38 7.26,-10.103 12.399,-6.322 C 55.837,7.57 83.063,-7.165 83.063,-7.165 L 92.366,6.558 83.063,18.276 C 72.668,21.437 41.001,27.352 0,0"
             style="fill:#b4d2d7;fill-opacity:1;fill-rule:nonzero;stroke:none"
             id="path7451" /></g><g
           id="g7453"
           transform="translate(473.3982,267.7723)"><path
             d="m 0,0 c -5.592,1.136 -11.697,-0.783 -15.534,-5.784 l -8.351,-10.886 c -2.094,-2.728 -3.228,-6.071 -3.228,-9.51 v -150.272 c 0,-1.028 0.091,-2.012 0.258,-2.953 l 41.869,44.044 c 0,0 -4.353,123.589 -15.014,135.361"
             style="fill:#e27f86;fill-opacity:1;fill-rule:nonzero;stroke:none"
             id="path7455" /></g><g
           id="g7457"
           transform="translate(491.0076,251.1025)"><path
             d="m 0,0 -8.351,10.885 c -2.417,3.151 -5.736,5.069 -9.258,5.785 0.541,-1.054 0.835,-2.224 0.835,-3.421 v -120.692 c 0,-5.343 -1.427,-10.589 -4.133,-15.197 l -23.558,-40.095 c 2.409,-13.625 21.293,-17.803 28.838,-4.961 l 12.396,21.098 c 4.229,7.198 6.459,15.395 6.459,23.744 V -9.51 C 3.228,-6.071 2.093,-2.728 0,0"
             style="fill:#df646e;fill-opacity:1;fill-rule:nonzero;stroke:none"
             id="path7459" /></g><g
           id="g7461"
           transform="translate(187.8929,206.4756)"><path
             d="M 0,0 -4.222,65.203 -22.114,47.311 -33.716,-49.476 Z"
             style="fill:#df646e;fill-opacity:1;fill-rule:nonzero;stroke:none"
             id="path7463" /></g><g
           id="g7465"
           transform="translate(189.474,182.0552)"><path
             d="M 0,0 -1.581,24.42 -23.695,2.306 v 69.425 l -17.001,-17.001 -9.432,-72.584 9.432,-22.843 z"
             style="fill:#dc4955;fill-opacity:1;fill-rule:nonzero;stroke:none"
             id="path7467" /></g><g
           id="g7469"
           transform="translate(144.0588,104.7647)"><path
             d="M 0,0 -15.282,164.412 C -31.036,141.773 -54.285,115.113 -78.344,111.387 L -84.471,24.471 Z"
             style="fill:#d2e4e7;fill-opacity:1;fill-rule:nonzero;stroke:none"
             id="path7471" /></g><g
           id="g7473"
           transform="translate(134.418,277.5696)"><path
             d="M 0,0 C -1.748,-2.694 -3.637,-5.513 -5.641,-8.393 V -153.94 c 0,-2.694 -2.918,-4.367 -5.253,-3.023 -35.886,20.65 -57.809,8.79 -57.809,8.79 l -6.127,-11.367 6.127,-10.635 c 0,0 27.226,14.736 70.664,-17.218 5.139,-3.781 12.399,-0.058 12.399,6.322 V -4.258 C 14.36,3.521 4.233,6.526 0,0"
             style="fill:#b4d2d7;fill-opacity:1;fill-rule:nonzero;stroke:none"
             id="path7475" /></g><g
           id="g7477"
           transform="translate(49.8824,263)"><path
             d="M 0,0 C 0,0 -2.969,2.952 -5.005,4.772 -10.596,5.908 -16.702,3.99 -20.539,-1.012 l -8.351,-10.885 c -2.093,-2.729 -3.228,-6.072 -3.228,-9.51 v -113.344 c 0,-8.349 2.23,-16.546 6.459,-23.745 l 12.396,-21.098 c 1.922,-3.271 4.583,-5.426 7.517,-6.614 2.009,1.52 10.789,6.796 10.789,6.796 z"
             style="fill:#e27f86;fill-opacity:1;fill-rule:nonzero;stroke:none"
             id="path7479" /></g><g
           id="g7481"
           transform="translate(62.4871,251.1025)"><path
             d="m 0,0 -8.351,10.885 c -2.417,3.151 -5.736,5.069 -9.258,5.785 0.541,-1.054 0.836,-2.224 0.836,-3.421 v -182.895 c 0,-1.87 -0.608,-3.445 -1.578,-4.664 9.38,-3.798 21.579,2.4 21.579,14.528 V -9.51 C 3.228,-6.071 2.093,-2.728 0,0"
             style="fill:#df646e;fill-opacity:1;fill-rule:nonzero;stroke:none"
             id="path7483" /></g><g
           id="g7485"
           transform="translate(309.7059,88.6588)"><path
             d="M 0,0 -10.893,96.241 H -116.52 V -0.392 c 0,-2.215 0.97,-4.313 2.666,-5.736 1.564,-1.312 3.807,-3.059 6.699,-4.983 C -49.023,-39.012 0,0 0,0"
             style="fill:#e27f86;fill-opacity:1;fill-rule:nonzero;stroke:none"
             id="path7487" /></g><g
           id="g7489"
           transform="translate(298.8132,184.9001)"><path
             d="m 0,0 v -86.633 c 0,-2.216 -0.973,-4.315 -2.671,-5.739 -7.059,-5.92 -27.908,-20.699 -60.143,-20.699 -13.077,0 -24.28,2.432 -33.449,5.718 10.159,-6.761 28.352,-15.719 53.45,-15.719 31.966,0 52.737,14.534 59.964,20.549 1.816,1.511 2.85,3.76 2.85,6.122 l 0,96.401 z"
             style="fill:#df646e;fill-opacity:1;fill-rule:nonzero;stroke:none"
             id="path7491" /></g><g
           id="g7493"
           transform="translate(267.8712,96.4118)"><path
             d="m 0,0 14.578,65.647 35.284,16.287 v 191.412 c 0,73.83 -24.537,108.972 -43.895,128.128 -6.25,4.285 -12.345,6.614 -17.838,6.614 -28.119,0 -71.967,-60.765 -71.967,-134.897 V 83.995 c 0,-2.585 1.331,-4.987 3.522,-6.358 L -43.434,54.559 V 16.643 Z"
             style="fill:#d2e4e7;fill-opacity:1;fill-rule:nonzero;stroke:none"
             id="path7495" /></g><g
           id="g7497"
           transform="translate(273.8386,497.8855)"><path
             d="m 0,0 c 18.543,-24.651 34.126,-64.089 34.126,-108.282 v -191.411 c 0,-1.207 -0.62,-2.328 -1.643,-2.967 l -35.238,-22.05 c -2.191,-1.371 -3.522,-3.774 -3.522,-6.358 v -43.158 c 0,-1.157 -0.559,-2.255 -1.524,-2.892 -12.351,-8.156 -27.49,-10.723 -41.601,-7.713 v -11.244 c 18.701,-13.306 44.426,-13.306 63.126,0 v 49.16 l 36.882,23.078 c 2.191,1.371 3.522,3.773 3.522,6.358 v 189.196 C 54.128,-68.634 25.74,-17.649 0,0"
             style="fill:#b4d2d7;fill-opacity:1;fill-rule:nonzero;stroke:none"
             id="path7499" /></g><g
           id="g7501"
           transform="translate(256,434.5072)"><path
             d="m 0,0 c -28.118,0 -71.966,-70.766 -71.966,-144.899 v -22.878 c 0,74.132 43.848,116.895 71.966,116.895 15.883,0 36.782,-13.647 51.965,-38.881 l 6.211,7.55 -6.211,26.622 C 36.782,-22.581 15.883,0 0,0"
             style="fill:#738c96;fill-opacity:1;fill-rule:nonzero;stroke:none"
             id="path7503" /></g><g
           id="g7505"
           transform="translate(327.9663,289.6086)"><path
             d="M 0,0 C 0,32.259 -8.305,63.877 -20.001,89.307 V 55.135 C -8.305,35.695 0,9.38 0,-22.879 Z"
             style="fill:#607882;fill-opacity:1;fill-rule:nonzero;stroke:none"
             id="path7507" /></g><g
           id="g7509"
           transform="translate(53.7647,460.6472)"><path
             d="m 0,0 -12.026,19.589 c -8.284,-10e-4 -14.999,-6.716 -14.999,-15 V -20.74 l 8.924,-7.316 z"
             style="fill:#f4daa7;fill-opacity:1;fill-rule:nonzero;stroke:none"
             id="path7511" /></g><g
           id="g7513"
           transform="translate(41.7397,480.2358)"><path
             d="m 0,0 c 0,0 -0.001,-32.829 -0.001,-32.829 0,-4.142 -3.358,-7.5 -7.5,-7.5 L -15,-40.33 c 0,-8.284 6.716,-15 15,-15 8.284,0 15,6.716 15,15 V -15 C 15,-6.716 8.284,0 0,0"
             style="fill:#f1cd88;fill-opacity:1;fill-rule:nonzero;stroke:none"
             id="path7515" /></g><g
           id="g7517"
           transform="translate(53.7647,358.2941)"><path
             d="m 0,0 -12.026,19.589 c -8.284,-10e-4 -14.999,-6.716 -14.999,-15 V -20.74 l 8.924,-7.316 z"
             style="fill:#f4daa7;fill-opacity:1;fill-rule:nonzero;stroke:none"
             id="path7519" /></g><g
           id="g7521"
           transform="translate(41.7398,377.8828)"><path
             d="m 0,0 c 0,0 -0.001,-32.829 -0.001,-32.829 0,-4.142 -3.358,-7.5 -7.5,-7.5 L -15,-40.33 c 0,-8.284 6.716,-15 15,-15 8.284,0 15,6.716 15,15 V -15 C 15,-6.716 8.284,0 0,0"
             style="fill:#f1cd88;fill-opacity:1;fill-rule:nonzero;stroke:none"
             id="path7523" /></g><g
           id="g7525"
           transform="translate(482.2852,460.6472)"><path
             d="m 0,0 -12.026,19.589 c -8.284,-10e-4 -14.999,-6.716 -14.999,-15 V -20.74 l 8.924,-7.316 z"
             style="fill:#f4daa7;fill-opacity:1;fill-rule:nonzero;stroke:none"
             id="path7527" /></g><g
           id="g7529"
           transform="translate(470.2602,480.2358)"><path
             d="m 0,0 c 0,0 -0.001,-32.829 -0.001,-32.829 0,-4.142 -3.358,-7.5 -7.5,-7.5 L -15,-40.33 c 0,-8.284 6.716,-15 15,-15 8.284,0 15,6.716 15,15 V -15 C 15,-6.716 8.284,0 0,0"
             style="fill:#f1cd88;fill-opacity:1;fill-rule:nonzero;stroke:none"
             id="path7531" /></g><g
           id="g7533"
           transform="translate(482.2852,358.2941)"><path
             d="m 0,0 -12.026,19.589 c -8.284,-10e-4 -14.999,-6.716 -14.999,-15 V -20.74 l 8.924,-7.316 z"
             style="fill:#f4daa7;fill-opacity:1;fill-rule:nonzero;stroke:none"
             id="path7535" /></g><g
           id="g7537"
           transform="translate(470.2603,377.8828)"><path
             d="m 0,0 c 0,0 -0.001,-32.829 -0.001,-32.829 0,-4.142 -3.358,-7.5 -7.5,-7.5 L -15,-40.33 c 0,-8.284 6.716,-15 15,-15 8.284,0 15,6.716 15,15 V -15 C 15,-6.716 8.284,0 0,0"
             style="fill:#f1cd88;fill-opacity:1;fill-rule:nonzero;stroke:none"
             id="path7539" /></g><g
           id="g7541"
           transform="translate(17.7647,170.5275)"><path
             d="m 0,0 v -42.279 c 0,-8.349 2.23,-16.546 6.459,-23.744 l 12.396,-21.098 c 8.066,-13.729 29.095,-8.008 29.095,7.914 V 71.065 c 0,3.439 -1.134,6.782 -3.228,9.51 L 36.371,91.46 c -6.254,8.152 -18.538,8.152 -24.792,0 L 3.228,80.575 C 1.135,77.847 0,74.504 0,71.065 V 30.002"
             style="fill:none;stroke:#000000;stroke-width:15;stroke-linecap:round;stroke-linejoin:round;stroke-miterlimit:10;stroke-dasharray:none;stroke-opacity:1"
             id="path7543" /></g><g
           id="g7545"
           transform="translate(184.0337,202.2922)"><path
             d="m 0,0 v -26.04 l 40.403,-25.282 v -49.16 c 18.701,-13.305 44.425,-13.305 63.126,0 v 49.16 l 40.404,25.282 v 193.35 c 0,74.133 -43.848,134.898 -71.967,134.898 C 43.848,302.208 0,241.443 0,167.31 V 30.002"
             style="fill:none;stroke:#000000;stroke-width:15;stroke-linecap:round;stroke-linejoin:round;stroke-miterlimit:10;stroke-dasharray:none;stroke-opacity:1"
             id="path7547" /></g><g
           id="g7549"
           transform="translate(256,383.6254)"><path
             d="m 0,0 c 28.118,0 71.966,-42.763 71.966,-116.896 v 22.879 C 71.966,-19.884 28.118,50.882 0,50.882 c -28.118,0 -71.966,-70.766 -71.966,-144.899 v -22.879 C -71.966,-42.763 -28.118,0 0,0 Z"
             style="fill:none;stroke:#000000;stroke-width:15;stroke-linecap:round;stroke-linejoin:round;stroke-miterlimit:10;stroke-dasharray:none;stroke-opacity:1"
             id="path7551" /></g><g
           id="g7553"
           transform="translate(318.8144,170.5256)"><path
             d="m 0,0 v -82.259 c 0,-2.214 -0.97,-4.313 -2.667,-5.736 -7.055,-5.918 -27.907,-20.702 -60.147,-20.702 -32.241,0 -53.093,14.784 -60.148,20.702 -1.697,1.423 -2.667,3.522 -2.667,5.736 V 0"
             style="fill:none;stroke:#000000;stroke-width:15;stroke-linecap:round;stroke-linejoin:round;stroke-miterlimit:10;stroke-dasharray:none;stroke-opacity:1"
             id="path7555" /></g><g
           id="g7557"
           transform="translate(65.7148,107.395)"><path
             d="m 0,0 c 0,0 27.226,14.735 70.664,-17.219 5.139,-3.78 12.399,-0.058 12.399,6.322 v 176.814 c 0,7.778 -10.127,10.784 -14.36,4.257 C 53.219,146.302 27.12,112.957 0,108.756"
             style="fill:none;stroke:#000000;stroke-width:15;stroke-linecap:round;stroke-linejoin:round;stroke-miterlimit:10;stroke-dasharray:none;stroke-opacity:1"
             id="path7559" /></g><g
           id="g7561"
           transform="translate(183.6715,271.6787)"><path
             d="M 0,0 -34.894,-34.894"
             style="fill:none;stroke:#000000;stroke-width:15;stroke-linecap:round;stroke-linejoin:round;stroke-miterlimit:10;stroke-dasharray:none;stroke-opacity:1"
             id="path7563" /></g><g
           id="g7565"
           transform="translate(183.6715,176.2523)"><path
             d="M 0,0 -34.894,-34.894"
             style="fill:none;stroke:#000000;stroke-width:15;stroke-linecap:round;stroke-linejoin:round;stroke-miterlimit:10;stroke-dasharray:none;stroke-opacity:1"
             id="path7567" /></g><g
           id="g7569"
           transform="translate(446.2852,107.395)"><path
             d="m 0,0 c 0,0 -27.226,14.735 -70.664,-17.219 -5.139,-3.78 -12.399,-0.058 -12.399,6.322 V 3.962"
             style="fill:none;stroke:#000000;stroke-width:15;stroke-linecap:round;stroke-linejoin:round;stroke-miterlimit:10;stroke-dasharray:none;stroke-opacity:1"
             id="path7571" /></g><g
           id="g7573"
           transform="translate(328.3285,271.6787)"><path
             d="M 0,0 34.894,-34.894"
             style="fill:none;stroke:#000000;stroke-width:15;stroke-linecap:round;stroke-linejoin:round;stroke-miterlimit:10;stroke-dasharray:none;stroke-opacity:1"
             id="path7575" /></g><g
           id="g7577"
           transform="translate(328.3285,176.2523)"><path
             d="M 0,0 34.894,-34.894 V 97.059 c 0,7.779 10.126,10.784 14.36,4.258 C 64.738,77.445 90.837,44.1 117.957,39.899"
             style="fill:none;stroke:#000000;stroke-width:15;stroke-linecap:round;stroke-linejoin:round;stroke-miterlimit:10;stroke-dasharray:none;stroke-opacity:1"
             id="path7579" /></g><g
           id="g7581"
           transform="translate(446.2852,156.2954)"><path
             d="m 0,0 v 85.297 c 0,3.439 1.135,6.782 3.228,9.51 l 8.351,10.886 c 6.254,8.152 18.538,8.152 24.792,0 l 8.351,-10.886 c 2.094,-2.728 3.228,-6.071 3.228,-9.51 V -28.047 c 0,-8.349 -2.23,-16.546 -6.459,-23.744 L 29.095,-72.889 C 21.029,-86.617 0,-80.897 0,-64.975 v 34.973"
             style="fill:none;stroke:#000000;stroke-width:15;stroke-linecap:round;stroke-linejoin:round;stroke-miterlimit:10;stroke-dasharray:none;stroke-opacity:1"
             id="path7583" /></g><g
           id="g7585"
           transform="translate(273.9109,63.4089)"><path
             d="m 0,0 c 5.25,-3.894 8.539,-10.195 8.539,-19.434 0,-12.574 -13.606,-27.176 -21.301,-34.428 -2.896,-2.729 -7.402,-2.729 -10.298,0 -7.694,7.252 -21.301,21.854 -21.301,34.428 0,9.24 3.29,15.541 8.54,19.434"
             style="fill:none;stroke:#000000;stroke-width:15;stroke-linecap:round;stroke-linejoin:round;stroke-miterlimit:10;stroke-dasharray:none;stroke-opacity:1"
             id="path7587" /></g><g
           id="g7589"
           transform="translate(41.7398,322.5527)"><path
             d="m 0,0 c -8.284,0 -15,6.716 -15,15 v 25.33 c 0,8.284 6.716,15 15,15 8.284,0 15,-6.716 15,-15 V 15 C 15,6.716 8.284,0 0,0 Z"
             style="fill:none;stroke:#000000;stroke-width:15;stroke-linecap:round;stroke-linejoin:round;stroke-miterlimit:10;stroke-dasharray:none;stroke-opacity:1"
             id="path7591" /></g><g
           id="g7593"
           transform="translate(41.7398,424.9057)"><path
             d="m 0,0 c -8.284,0 -15,6.716 -15,15 v 25.33 c 0,8.284 6.716,15 15,15 8.284,0 15,-6.716 15,-15 V 15 C 15,6.716 8.284,0 0,0 Z"
             style="fill:none;stroke:#000000;stroke-width:15;stroke-linecap:round;stroke-linejoin:round;stroke-miterlimit:10;stroke-dasharray:none;stroke-opacity:1"
             id="path7595" /></g><g
           id="g7597"
           transform="translate(470.2602,322.5527)"><path
             d="m 0,0 c -8.284,0 -15,6.716 -15,15 v 25.33 c 0,8.284 6.716,15 15,15 8.284,0 15,-6.716 15,-15 V 15 C 15,6.716 8.284,0 0,0 Z"
             style="fill:none;stroke:#000000;stroke-width:15;stroke-linecap:round;stroke-linejoin:round;stroke-miterlimit:10;stroke-dasharray:none;stroke-opacity:1"
             id="path7599" /></g><g
           id="g7601"
           transform="translate(470.2602,424.9057)"><path
             d="m 0,0 c -8.284,0 -15,6.716 -15,15 v 25.33 c 0,8.284 6.716,15 15,15 8.284,0 15,-6.716 15,-15 V 15 C 15,6.716 8.284,0 0,0 Z"
             style="fill:none;stroke:#000000;stroke-width:15;stroke-linecap:round;stroke-linejoin:round;stroke-miterlimit:10;stroke-dasharray:none;stroke-opacity:1"
             id="path7603" /></g></g></g></g></svg>
