<svg height="512pt" viewBox="0 -3 512.00206 512" width="512pt" xmlns="http://www.w3.org/2000/svg"><g fill="#c7c5cb"><path d="m130.394531 295.53125v89.003906c0 19.527344 15.832031 35.355469 35.355469 35.355469h74.277344v-124.359375zm0 0"/><path d="m381.605469 295.53125v89.003906c0 19.527344-15.832031 35.355469-35.355469 35.355469h-74.277344v-124.359375zm0 0"/><path d="m455.195312 183.5h39.667969v213.601562h-39.667969zm0 0"/><path d="m371.296875 53.101562h39.667969v213.605469h-39.667969zm0 0"/><path d="m56.804688 397.101562h-39.667969v-213.601562h39.667969zm0 0"/><path d="m140.703125 266.707031h-39.667969v-213.605469h39.667969zm0 0"/></g><path d="m256 332.304688c-34.003906 14.527343-57.832031 48.273437-57.832031 87.585937 0 36.59375 20.644531 68.359375 50.921875 84.296875 4.328125 2.277344 9.492187 2.277344 13.820312 0 30.277344-15.9375 50.921875-47.703125 50.921875-84.296875 0-39.3125-23.828125-73.058594-57.832031-87.585937zm0 0" fill="#f4e64c"/><path d="m256 330.257812c-18.28125 13.195313-29.476562 34.503907-29.476562 57.695313 0 17.953125 6.710937 34.78125 18.226562 47.585937 6.03125 6.707032 16.46875 6.707032 22.5 0 11.515625-12.804687 18.226562-29.632812 18.226562-47.585937 0-23.191406-11.195312-44.5-29.476562-57.695313zm0 0" fill="#ff6f7f"/><path d="m56.804688 239.957031-39.671876 65.222657v91.921874h39.671876zm0 0" fill="#a19dae"/><path d="m140.703125 102.007812-39.667969 65.222657v99.476562h39.667969zm0 0" fill="#a19dae"/><path d="m371.296875 102.011719v164.695312h39.667969v-99.476562zm0 0" fill="#a19dae"/><path d="m494.867188 305.179688-39.671876-65.222657v157.144531h39.671876zm0 0" fill="#a19dae"/><path d="m498.804688 371.132812-216.851563-356.539062c-5.511719-9.0625-15.347656-14.59375-25.953125-14.59375s-20.441406 5.53125-25.953125 14.59375l-216.851563 356.539062c-8.632812 14.1875-13.195312 30.472657-13.195312 47.082032v13.671875c0 9.488281 10.636719 15.089843 18.460938 9.726562l168.496093-115.539062c3.300781-2.265625 7.207031-3.476563 11.210938-3.476563 10.949219 0 19.824219 8.875 19.824219 19.824219v19.679687h76.015624v-19.679687c0-10.949219 8.878907-19.824219 19.828126-19.824219 4 0 7.910156 1.210938 11.210937 3.476563l168.492187 115.539062c7.828126 5.363281 18.464844-.238281 18.464844-9.726562v-13.671875c-.003906-16.609375-4.566406-32.894532-13.199218-47.082032zm0 0" fill="#e4e4e4"/><path d="m363.894531 229.871094-41.003906-67.417969c-15.25-25.074219-41.070313-37.609375-66.890625-37.609375s-51.640625 12.535156-66.890625 37.609375l-41.003906 67.417969c-1.03125 1.691406-1.574219 3.632812-1.574219 5.613281v16.96875c0 8.328125 9.027344 13.539063 16.226562 9.347656 20.34375-11.851562 56.964844-29.664062 93.242188-29.664062s72.894531 17.8125 93.238281 29.664062c7.199219 4.191407 16.230469-1.019531 16.230469-9.347656v-16.96875c0-1.980469-.542969-3.921875-1.574219-5.613281zm0 0" fill="#5c586f"/><path d="m177.4375 252.449219c0-13.074219 3.59375-25.902344 10.390625-37.074219l32.1875-52.921875c12.1875-20.042969 31.136719-32.066406 51.4375-36.085937-5.09375-1.007813-10.273437-1.523438-15.453125-1.523438-25.820312 0-51.640625 12.535156-66.890625 37.609375l-41.003906 67.414063c-1.03125 1.695312-1.574219 3.636718-1.574219 5.617187v16.964844c0 8.332031 9.027344 13.542969 16.230469 9.351562 4.257812-2.480469 9.234375-5.222656 14.765625-8.007812-.054688-.4375-.089844-.882813-.089844-1.34375zm0 0" fill="#423e4f"/><path d="m494.867188 158.140625h-39.671876c-7.089843 0-12.839843 5.746094-12.839843 12.839844v25.039062c0 7.089844 5.75 12.839844 12.839843 12.839844h39.667969c7.09375 0 12.839844-5.75 12.839844-12.839844v-25.039062c.003906-7.09375-5.746094-12.839844-12.835937-12.839844zm0 0" fill="#ff6f7f"/><path d="m410.964844 27.742188h-39.667969c-7.09375 0-12.839844 5.75-12.839844 12.839843v25.039063c0 7.09375 5.746094 12.839844 12.839844 12.839844h39.667969c7.089844 0 12.839844-5.746094 12.839844-12.839844v-25.039063c0-7.089843-5.75-12.839843-12.839844-12.839843zm0 0" fill="#ff6f7f"/><path d="m389.359375 65.621094v-25.039063c0-7.089843 5.75-12.839843 12.84375-12.839843h-30.90625c-7.09375 0-12.839844 5.75-12.839844 12.839843v25.039063c0 7.09375 5.746094 12.839844 12.839844 12.839844h30.90625c-7.09375 0-12.84375-5.746094-12.84375-12.839844zm0 0" fill="#f8485e"/><path d="m17.132812 158.140625h39.671876c7.089843 0 12.839843 5.746094 12.839843 12.839844v25.039062c0 7.089844-5.75 12.839844-12.839843 12.839844h-39.671876c-7.089843 0-12.839843-5.75-12.839843-12.839844v-25.039062c0-7.09375 5.75-12.839844 12.839843-12.839844zm0 0" fill="#ff6f7f"/><path d="m35.199219 196.019531v-25.039062c0-7.09375 5.75-12.839844 12.839843-12.839844h-30.90625c-7.089843 0-12.839843 5.746094-12.839843 12.839844v25.039062c0 7.089844 5.75 12.839844 12.839843 12.839844h30.90625c-7.089843 0-12.839843-5.75-12.839843-12.839844zm0 0" fill="#f8485e"/><path d="m101.035156 27.742188h39.667969c7.09375 0 12.839844 5.75 12.839844 12.839843v25.039063c0 7.09375-5.746094 12.839844-12.839844 12.839844h-39.667969c-7.089844 0-12.839844-5.746094-12.839844-12.839844v-25.039063c0-7.089843 5.75-12.839843 12.839844-12.839843zm0 0" fill="#ff6f7f"/><path d="m119.101562 65.621094v-25.039063c0-7.089843 5.75-12.839843 12.839844-12.839843h-30.90625c-7.089844 0-12.839844 5.75-12.839844 12.839843v25.039063c0 7.09375 5.75 12.839844 12.839844 12.839844h30.90625c-7.089844 0-12.839844-5.746094-12.839844-12.839844zm0 0" fill="#f8485e"/><path d="m473.261719 196.019531v-25.039062c0-7.09375 5.75-12.839844 12.839843-12.839844h-30.90625c-7.089843 0-12.839843 5.746094-12.839843 12.839844v25.039062c0 7.089844 5.75 12.839844 12.839843 12.839844h30.90625c-7.089843 0-12.839843-5.75-12.839843-12.839844zm0 0" fill="#f8485e"/></svg>