<?xml version="1.0" encoding="UTF-8" standalone="no"?>
<!-- Created with Inkscape (http://www.inkscape.org/) -->

<svg
   version="1.1"
   id="svg870"
   xml:space="preserve"
   width="682.66669"
   height="682.66669"
   viewBox="0 0 682.66669 682.66669"
   xmlns="http://www.w3.org/2000/svg"
   xmlns:svg="http://www.w3.org/2000/svg"><defs
     id="defs874"><clipPath
       clipPathUnits="userSpaceOnUse"
       id="clipPath936"><path
         d="M 0,512 H 512 V 0 H 0 Z"
         id="path934" /></clipPath></defs><g
     id="g876"
     transform="matrix(1.3333333,0,0,-1.3333333,0,682.66667)"><g
       id="g878"
       transform="translate(205.4932,365.2827)"><path
         d="m 0,0 -30.705,-57.362 v -226.596 l 43.614,-22.289 h 72.615 l 46.255,22.289 V -57.362 L 101.013,0 79.536,99.524 50.507,136.717 21.478,99.524 16.506,76.487 Z"
         style="fill:#3a658c;fill-opacity:1;fill-rule:nonzero;stroke:none"
         id="path880" /></g><g
       id="g882"
       transform="translate(174.79,307.9199)"><path
         d="m 0,0 v -123.89 l -18.33,-36.89 -101.66,-16.94 v 91.77 l 40.3,28.87 V -99.2 l 31.82,24.83 v 40.08 z"
         style="fill:#d4effc;fill-opacity:1;fill-rule:nonzero;stroke:none"
         id="path884" /></g><g
       id="g886"
       transform="translate(54.7939,230.6216)"><path
         d="M 0,0 -12.908,16.796 H -41.823 V -116.621 H 0 Z"
         style="fill:#facf23;fill-opacity:1;fill-rule:nonzero;stroke:none"
         id="path888" /></g><g
       id="g890"
       transform="translate(457.21,221.9702)"><path
         d="m 0,0 v -91.77 l -101.59,16.94 -18.34,36.89 V 85.95 L -70.76,50.71 V 11.58 l 31.82,-24.83 v 41.16 z"
         style="fill:#d4effc;fill-opacity:1;fill-rule:nonzero;stroke:none"
         id="path892" /></g><g
       id="g894"
       transform="translate(457.2061,230.6216)"><path
         d="M 0,0 12.908,16.796 H 41.823 V -116.621 H 0 Z"
         style="fill:#facf23;fill-opacity:1;fill-rule:nonzero;stroke:none"
         id="path896" /></g><g
       id="g898"
       transform="translate(174.7881,184.0337)"><path
         d="m 0,0 -72.032,-144.955 v -29.079 L 0,-102.708 Z"
         style="fill:#d4effc;fill-opacity:1;fill-rule:nonzero;stroke:none"
         id="path900" /></g><g
       id="g902"
       transform="translate(337.2725,184.0337)"><path
         d="m 0,0 72.056,-144.955 v -29.079 L 0,-102.708 Z"
         style="fill:#d4effc;fill-opacity:1;fill-rule:nonzero;stroke:none"
         id="path904" /></g><g
       id="g906"
       transform="translate(386.4473,233.5469)"><path
         d="M 0,0 V 79.894 L 31.823,54.973 v -79.796 z"
         style="fill:#ff7a8c;fill-opacity:1;fill-rule:nonzero;stroke:none"
         id="path908" /></g><g
       id="g910"
       transform="translate(126.9209,233.5469)"><path
         d="M 0,0 V 79.894 L -31.822,54.973 v -79.796 z"
         style="fill:#ff7a8c;fill-opacity:1;fill-rule:nonzero;stroke:none"
         id="path912" /></g><g
       id="g914"
       transform="translate(255.8799,373.1396)"><path
         d="m 0,0 v -72.089 l -49.619,-58.968 v 39.435 z"
         style="fill:#b2d5f6;fill-opacity:1;fill-rule:nonzero;stroke:none"
         id="path916" /></g><g
       id="g918"
       transform="translate(255.8799,373.1396)"><path
         d="m 0,0 v -72.089 l 49.619,-58.968 v 39.435 z"
         style="fill:#b2d5f6;fill-opacity:1;fill-rule:nonzero;stroke:none"
         id="path920" /></g><g
       id="g922"
       transform="translate(226.9707,464.8071)"><path
         d="M 0,0 17.473,-16.977 H 40.586 L 58.059,0 29.029,37.193 Z"
         style="fill:#ff7a8c;fill-opacity:1;fill-rule:nonzero;stroke:none"
         id="path924" /></g><g
       id="g926"
       transform="translate(218.4023,59.0356)"><path
         d="M 0,0 22.721,37.981 H 50.264 L 72.615,0 Z"
         style="fill:#facf23;fill-opacity:1;fill-rule:nonzero;stroke:none"
         id="path928" /></g><g
       id="g930"><g
         id="g932"
         clip-path="url(#clipPath936)"><g
           id="g938"
           transform="translate(489.0293,124.001)"><path
             d="m 0,0 h -21.823 v 6.128 c 0,0.024 0.004,0.047 0.004,0.071 v 91.77 c 0,0.022 -0.004,0.044 -0.004,0.065 v 5.188 l 7.835,10.195 H 0 Z m -126.728,32.163 -15.021,30.215 v 102.071 l 29.167,-20.904 v -33.999 c 0,-3.081 1.42,-5.99 3.85,-7.885 l 15.82,-12.34 16,-12.486 c 3.043,-2.372 7.236,-2.723 10.676,-1.033 3.338,1.639 5.477,5.226 5.477,8.921 v 21.685 l 18.936,-13.572 v -74.83 z m 37.027,-122.195 -52.056,51.528 V 17.45 l 52.056,-104.721 z m -163.291,35.067 10.757,17.981 h 16.154 l 10.581,-17.981 z m -51.249,91.585 22.824,-21.845 c 1.86,-1.782 4.338,-2.776 6.914,-2.776 h 81.14 c 2.497,0 4.904,0.934 6.747,2.619 l 24.859,22.725 v -73.737 l -32.305,-15.567 -17.683,30.048 c -1.797,3.054 -5.075,4.929 -8.618,4.929 h -27.543 c -3.518,0 -6.777,-1.848 -8.582,-4.867 l -17.918,-29.952 -29.835,15.247 z m -72.032,-123.89 52.032,104.707 v -55.942 l -52.032,-51.521 z m -47.956,105.273 v 74.829 l 20.298,14.542 V 84.723 c 0,-3.695 2.14,-7.283 5.478,-8.921 3.438,-1.688 7.635,-1.341 10.676,1.033 l 18.756,14.636 13.063,10.19 c 2.43,1.895 3.85,4.804 3.85,7.885 v 34.946 l 27.867,19.962 V 62.38 L -339.257,32.163 Z M -444.235,0 h -21.824 v 113.417 h 13.989 l 7.835,-10.195 z m 72.127,168.907 v -19.261 c 0,-0.006 -10e-4,-0.012 -10e-4,-0.017 V 114.43 l -10.739,-8.379 -1.082,-0.844 v 21.632 c 0,0.005 -10e-4,0.01 -10e-4,0.015 v 32.795 z m 89.327,-60.825 c 2.919,0 5.783,1.325 7.664,3.561 l 41.968,49.875 41.967,-49.875 c 1.881,-2.236 4.745,-3.561 7.664,-3.561 h 21.761 V 64.44 l -35.488,-32.441 h -73.243 l -33.751,32.303 v 43.78 z m 10.012,46.9 29.62,54.693 v -28.978 l -29.62,-35.199 z m 79.239,-9.484 -29.619,35.199 v 28.978 l 29.619,-54.693 z m 112.771,14.151 v -33.756 c 0,-0.005 -0.001,-0.009 -0.001,-0.014 v -20.672 l -11.819,9.223 v 34.249 c 0,0.017 -0.003,0.033 -0.003,0.049 v 20.18 z m -144.772,174.18 h -14.996 l -8.128,7.897 15.626,20.02 15.626,-20.02 z M 10,133.417 h -28.915 c -3.106,0 -6.036,-1.443 -7.929,-3.907 l -11.301,-14.704 -22.614,16.208 v 33.505 c 0,3.074 -1.414,5.978 -3.835,7.873 l -31.823,24.921 c -3.013,2.359 -7.106,2.791 -10.544,1.117 -3.438,-1.675 -5.621,-5.165 -5.621,-8.99 v -21.289 l -31.465,22.551 -28.999,54.066 -21.179,98.148 c -0.314,1.456 -0.977,2.87 -1.892,4.043 l -29.029,37.193 c -1.895,2.428 -4.803,3.847 -7.883,3.847 -3.08,0 -5.989,-1.419 -7.883,-3.847 l -29.029,-37.193 c -0.915,-1.173 -1.579,-2.588 -1.893,-4.043 l -4.972,-23.038 c -1.165,-5.398 2.268,-10.719 7.666,-11.884 5.398,-1.162 10.72,2.267 11.885,7.666 l 1.166,5.403 4.534,-4.406 c 1.867,-1.813 4.367,-2.828 6.969,-2.828 h 23.113 c 2.603,0 5.103,1.015 6.969,2.828 l 4.534,4.406 17.671,-81.891 c 0.197,-0.913 0.522,-1.794 0.963,-2.617 l 29.579,-55.148 v -53.325 h -11.773 v 29.435 c 0,1.663 -0.415,3.299 -1.207,4.762 l -49.619,91.622 c -3.728,6.833 -13.85,6.849 -17.586,0 l -49.62,-91.622 c -0.792,-1.463 -1.207,-3.099 -1.207,-4.762 v -29.435 h -11.47 v 53.334 l 29.519,55.146 c 2.607,4.87 0.773,10.93 -4.096,13.536 -4.871,2.607 -10.931,0.772 -13.537,-4.097 l -29.607,-55.312 -30.148,-21.596 v 20.347 c 0,3.825 -2.183,7.315 -5.621,8.99 -3.439,1.674 -7.532,1.241 -10.545,-1.117 l -31.823,-24.921 c -2.42,-1.895 -3.834,-4.799 -3.834,-7.873 v -32.543 l -23.977,-17.177 -11.307,14.711 c -1.892,2.464 -4.822,3.907 -7.929,3.907 h -28.915 c -5.522,0 -10,-4.477 -10,-10 V -10 c 0,-5.523 4.478,-10 10,-10 h 41.824 c 5.522,0 10,4.477 10,10 v 7.727 l 73.993,12.33 -44.987,-90.529 c -0.687,-1.383 -1.044,-2.906 -1.044,-4.45 v -29.079 c 0,-4.036 2.425,-7.676 6.15,-9.229 1.244,-0.519 2.551,-0.771 3.848,-0.771 2.585,0 5.128,1.003 7.038,2.894 l 66.889,66.233 37.17,-18.996 c 0.127,-0.065 0.261,-0.112 0.391,-0.171 0.159,-0.073 0.318,-0.147 0.481,-0.211 0.232,-0.092 0.467,-0.168 0.704,-0.243 0.162,-0.05 0.32,-0.105 0.484,-0.147 0.264,-0.068 0.533,-0.116 0.802,-0.162 0.143,-0.025 0.284,-0.058 0.428,-0.077 0.417,-0.053 0.838,-0.084 1.261,-0.084 h 72.615 c 0.414,0 0.826,0.031 1.235,0.082 0.136,0.017 0.27,0.047 0.406,0.069 0.269,0.045 0.537,0.095 0.802,0.162 0.154,0.039 0.304,0.086 0.457,0.131 0.241,0.074 0.478,0.154 0.714,0.246 0.152,0.059 0.3,0.12 0.449,0.186 0.092,0.041 0.187,0.071 0.278,0.115 l 39.896,19.225 67.039,-66.359 c 1.91,-1.891 4.452,-2.893 7.037,-2.893 1.297,0 2.604,0.252 3.848,0.771 3.724,1.554 6.15,5.194 6.15,9.229 v 29.079 c 0,1.544 -0.358,3.068 -1.045,4.451 l -45,90.527 73.923,-12.327 V -10 c 0,-5.523 4.477,-10 10,-10 L 10,-20 c 5.522,0 10,4.477 10,10 v 133.417 c 0,5.523 -4.478,10 -10,10"
             style="fill:#231f20;fill-opacity:1;fill-rule:nonzero;stroke:none"
             id="path940" /></g><g
           id="g942"
           transform="translate(205.29,399.3604)"><path
             d="m 0,0 c 1.622,-3.894 5.659,-6.449 9.887,-6.157 4.059,0.28 7.614,3.048 8.863,6.922 1.281,3.974 -0.115,8.451 -3.428,10.991 C 12.007,14.296 7.337,14.49 3.826,12.228 -0.181,9.646 -1.84,4.412 0,0"
             style="fill:#231f20;fill-opacity:1;fill-rule:nonzero;stroke:none"
             id="path944" /></g></g></g></g></svg>
