<svg clip-rule="evenodd" fill-rule="evenodd" height="512" image-rendering="optimizeQuality" shape-rendering="geometricPrecision" text-rendering="geometricPrecision" viewBox="0 0 1707 1707" width="512" xmlns="http://www.w3.org/2000/svg"><g id="Layer_x0020_1"><g id="_542716776"><path d="m345 1707c-12 0-22-6-29-15-11-17-9-47-2-78-91 72-188 84-243 84-26 0-43-2-44-2-8-2-14-8-16-17-1-7-25-152 82-286-16 3-32 6-45 6-12 0-22-2-30-6-11-7-18-18-18-31 0-56 107-285 331-285 20 0 40 2 60 5 4 1 8 3 11 6l217 217c3 2 5 6 5 10 17 100-8 192-71 266-74 88-179 126-208 126z" fill="#ffc943"/><path d="m1143 1522c-3 0-6-1-9-2-8-4-12-13-11-22 24-140-20-263-62-341-5-10-2-21 7-27 61-39 119-87 173-141 22-21 44-45 66-71 4-5 10-7 17-7 6 1 12 4 15 10 82 128 31 352 29 361-1 3-3 6-5 9l-205 224c-4 4-10 7-15 7z" fill="#f2444e"/><path d="m1082 1200c-7-15-14-30-21-43-5-10-2-21 7-27 61-39 119-87 173-141 22-21 44-45 66-71 4-5 10-7 17-7 6 1 12 4 15 10 8 12 15 25 20 39-23 26-46 52-70 76-60 60-130 117-207 164z" fill="#da3d46"/><path d="m560 648c-4 0-7-1-10-2-59-32-153-69-262-69-26 0-53 2-79 7-9 1-18-3-22-11s-2-18 5-24l224-205c2-2 5-4 9-5 3-1 76-17 163-17 83 0 150 15 198 46 6 3 9 9 10 15 0 6-3 13-7 17-26 22-50 44-71 65-54 54-102 113-142 174-3 6-10 9-16 9z" fill="#f2444e"/><path d="m560 648c-4 0-7-1-10-2-13-7-28-14-44-21 48-77 105-147 165-207 24-24 49-48 76-70 14 5 27 12 39 20 6 3 9 9 10 15 0 6-3 13-7 17-26 22-50 44-71 65-54 54-102 113-142 174-3 6-10 9-16 9z" fill="#da3d46"/><path d="m772 1290c-5 0-10-2-14-6l-335-335c-5-5-7-11-6-17 22-164 121-344 273-495 206-207 596-437 825-437 62 0 110 17 143 49 165 166-122 702-388 968-151 151-332 251-495 273-1 0-2 0-3 0z" fill="#d0e8ff"/><path d="m1173 100c125-61 247-100 342-100 62 0 110 17 143 49 88 89 47 283-50 485-109-16-212-67-290-145s-129-180-145-289z" fill="#bbd1e6"/><g fill="#f2444e"><path d="m449 802c5-13 10-27 16-41l479 480s1 0 1 1c-14 6-27 11-41 16z"/><path d="m1198 88c117-54 229-88 317-88 62 0 110 17 143 49 84 85 51 267-38 460-107-14-207-63-283-139s-125-176-139-282z"/><path d="m707 1442c-5 0-10-2-14-6l-422-423c-5-4-7-11-5-17 1-7 5-12 11-15l152-65c7-3 16-1 22 4l336 336c5 6 7 14 4 22l-65 151c-3 7-8 11-15 12-1 0-2 1-4 1z"/></g><path d="m1124 779c-52 0-102-21-139-58s-57-86-57-138c0-53 20-102 57-139s87-57 139-57 102 20 139 57c76 77 76 201 0 277-37 37-87 58-139 58z" fill="#bbd1e6"/><path d="m1124 399c-49 0-95 19-130 54-35 34-54 81-54 130s19 95 54 130 81 54 130 54 95-19 130-54c72-72 72-189 0-260-35-35-81-54-130-54z" fill="#333"/><g fill="#474747"><path d="m952 649c6 16 15 31 25 45l258-258c-14-10-29-19-45-25z"/><path d="m991 710 3 3c19 18 40 32 64 42l238-238c-9-23-23-45-42-64-1-1-2-2-2-3z"/></g></g></g></svg>