<svg id="Layer_1" enable-background="new 0 0 462.843 462.843" height="512" viewBox="0 0 462.843 462.843" width="512" xmlns="http://www.w3.org/2000/svg"><g><g><path d="m62.356 238.859c24.388 35.782 91.348 61.481 170.144 61.481s145.756-25.698 170.144-61.481z" fill="#d8fc7e"/><path d="m371.472 238.859c-30.26 28.844-90.094 48.481-158.972 48.481-51.809 0-98.5-11.111-131.338-28.892 32.041 25.203 87.844 41.892 151.338 41.892 78.796 0 145.756-25.698 170.144-61.481z" fill="#71e4bf"/><path d="m7.5 238.922v-9.938c0-44.183 35.817-80 80-80h287.843c44.183 0 80 35.817 80 80v9.938z" fill="#a9baca"/><path d="m375.343 148.984h-2.108c28.912 12.769 54.872 35.104 61.264 69.938h-426.347c-.414 3.298-.652 6.651-.652 10.062v9.938h447.843v-9.938c0-44.183-35.817-80-80-80z" fill="#6987a0"/><g fill="#fcad42"><circle cx="97.5" cy="193.922" r="17.5"/><circle cx="232.5" cy="193.922" r="17.5"/><circle cx="367.5" cy="193.922" r="17.5"/></g><path d="m359.829 148.984c-18.516-52.464-68.528-90.062-127.329-90.062s-108.813 37.598-127.33 90.062z" fill="#71e4bf"/><path d="m232.5 58.922c-3.875 0-7.708.173-11.5.493 53.753 4.536 98.533 40.562 115.83 89.569h23c-18.517-52.464-68.529-90.062-127.33-90.062z" fill="#0ea8b2"/></g><g><g><path d="m164.213 124.343-10.494-10.718c3.813-3.734 7.931-7.229 12.239-10.387l8.869 12.097c-3.736 2.739-7.306 5.77-10.614 9.008zm22.398-16.422-7.067-13.23c4.715-2.519 9.648-4.718 14.664-6.538l5.116 14.101c-4.348 1.576-8.625 3.484-12.713 5.667zm26.097-9.467-3.053-14.687c5.229-1.086 10.583-1.804 15.916-2.133l.924 14.972c-4.62.285-9.259.907-13.787 1.848z" fill="#fff"/></g><g><path d="m97.5 168.922c-13.785 0-25 11.215-25 25s11.215 25 25 25 25-11.215 25-25-11.215-25-25-25zm0 35c-5.514 0-10-4.486-10-10s4.486-10 10-10 10 4.486 10 10-4.486 10-10 10z"/><path d="m232.5 218.922c13.785 0 25-11.215 25-25s-11.215-25-25-25-25 11.215-25 25 11.215 25 25 25zm0-35c5.514 0 10 4.486 10 10s-4.486 10-10 10-10-4.486-10-10 4.486-10 10-10z"/><path d="m367.5 218.922c13.785 0 25-11.215 25-25s-11.215-25-25-25-25 11.215-25 25 11.215 25 25 25zm0-35c5.514 0 10 4.486 10 10s-4.486 10-10 10-10-4.486-10-10 4.486-10 10-10z"/><path d="m406.432 246.422h56.411v-17.438c0-48.248-39.252-87.5-87.5-87.5h-10.325c-6.588-16.669-16.163-31.785-28.532-44.985l-10.945 10.257c9.688 10.339 17.468 21.986 23.21 34.728h-232.498c20.447-45.306 65.89-75.062 116.247-75.062 30.116 0 59.343 10.697 82.296 30.12l9.689-11.45c-25.657-21.713-58.325-33.67-91.985-33.67-58.534 0-111.122 35.976-132.524 90.063h-12.476c-48.248 0-87.5 39.252-87.5 87.5v17.438h58.568c10.352 13.621 26.218 25.684 46.619 35.517l-56.736 91.483h-25.826v15h60v-15h-16.523l52.971-85.415c1.762.698 3.548 1.382 5.364 2.05 29.609 10.887 64.234 16.969 100.563 17.705v88.66h-22.5v15h60v-15h-22.5v-88.66c36.329-.736 70.954-6.818 100.563-17.705 1.816-.667 3.602-1.352 5.364-2.05l52.972 85.414h-16.524v15h60v-15h-25.826l-56.736-91.483c20.401-9.833 36.267-21.897 46.619-35.517zm-71.046 29.556c-27.983 10.289-60.82 16.049-95.386 16.778v-21.668h-15v21.668c-34.566-.729-67.404-6.489-95.387-16.778-21.263-7.818-38.792-18.053-50.895-29.557h62.514v-15h-126.232v-2.438c0-39.977 32.523-72.5 72.5-72.5h287.843c39.977 0 72.5 32.523 72.5 72.5v2.438h-291.736v15h230.174c-12.102 11.504-29.631 21.739-50.895 29.557z"/></g></g></g></svg>