<svg id="Filledoutline" height="512" viewBox="0 0 512 512" width="512" xmlns="http://www.w3.org/2000/svg"><path d="m80 232v48l76.24 5.45 35.76 2.55v-64l-35.76 2.55z" fill="#676767"/><path d="m152 256a103.748 103.748 0 0 0 4.24 29.45l35.76 2.55v-64l-35.76 2.55a103.748 103.748 0 0 0 -4.24 29.45z" fill="#4e4e4f"/><path d="m40 192h40a16 16 0 0 1 16 16v96a16 16 0 0 1 -16 16h-40z" fill="#4e4e4f"/><rect fill="#676767" height="464" rx="16" width="32" x="24" y="24"/><path d="m16 232h40a8 8 0 0 1 8 8v32a8 8 0 0 1 -8 8h-40a0 0 0 0 1 0 0v-48a0 0 0 0 1 0 0z" fill="#333" transform="matrix(-1 0 0 -1 80 512)"/><path d="m432 232v48l-76.24 5.45-35.76 2.55v-64l35.76 2.55z" fill="#676767"/><path d="m360 256a103.748 103.748 0 0 1 -4.24 29.45l-35.76 2.55v-64l35.76 2.55a103.748 103.748 0 0 1 4.24 29.45z" fill="#4e4e4f"/><path d="m288 320-6.13 36.76-1.87 11.24h-48l-1.87-11.24-6.13-36.76z" fill="#676767"/><path d="m288 320-6.13 36.76a104.9 104.9 0 0 1 -51.74 0l-6.13-36.76z" fill="#4e4e4f"/><path d="m344 256a88.018 88.018 0 1 1 -25.78-62.22 87.688 87.688 0 0 1 25.78 62.22z" fill="#676767"/><path d="m344 256a87.688 87.688 0 0 1 -25.78 62.22l-49.29-49.29v-25.86l49.29-49.29a87.688 87.688 0 0 1 25.78 62.22z" fill="#ed5749"/><path d="m472 192h-40a16 16 0 0 0 -16 16v96a16 16 0 0 0 16 16h40z" fill="#4e4e4f"/><rect fill="#676767" height="464" rx="16" width="32" x="456" y="24"/><path d="m448 232h40a8 8 0 0 1 8 8v32a8 8 0 0 1 -8 8h-40a0 0 0 0 1 0 0v-48a0 0 0 0 1 0 0z" fill="#333"/><circle cx="256" cy="256" fill="#b3b1b3" r="48"/><path d="m496 226.165v-186.165a24 24 0 0 0 -48 0v144h-16a24.027 24.027 0 0 0 -24 24v14.268l-63.983-4.574a95.986 95.986 0 0 0 -176.017-.039v-41.655h-16v42.836l-16 1.144v-19.98h-16v21.124l-16 1.144v-14.268a24.027 24.027 0 0 0 -24-24h-16v-144a24 24 0 0 0 -48 0v186.165a16 16 0 0 0 -8 13.835v32a16 16 0 0 0 8 13.835v186.165a24 24 0 0 0 48 0v-144h16a24.027 24.027 0 0 0 24-24v-14.268l63.983 4.574a96.186 96.186 0 0 0 14.749 23.649l-12.389 12.388 11.314 11.314 12.388-12.389a96.113 96.113 0 0 0 26.017 15.746l4.047 24.3a8 8 0 0 0 7.891 6.686h48a8 8 0 0 0 7.891-6.686l4.047-24.3a96.113 96.113 0 0 0 26.017-15.746l12.388 12.389 11.314-11.314-12.389-12.388a96.186 96.186 0 0 0 14.749-23.649l63.983-4.574v14.268a24.027 24.027 0 0 0 24 24h16v144a24 24 0 0 0 48 0v-186.165a16 16 0 0 0 8-13.835v-32a16 16 0 0 0 -8-13.835zm-8 45.835h-32v-32h32l.01 32zm-16-240a8.009 8.009 0 0 1 8 8v184h-16v-184a8.009 8.009 0 0 1 8-8zm-448 240v-32h32v32zm16-240a8.009 8.009 0 0 1 8 8v184h-16v-184a8.009 8.009 0 0 1 8-8zm0 448a8.009 8.009 0 0 1 -8-8v-184h16v184a8.009 8.009 0 0 1 -8 8zm48-176a8.009 8.009 0 0 1 -8 8h-16v-24a8 8 0 0 0 8-8v-48a8 8 0 0 0 -8-8v-24h16a8.009 8.009 0 0 1 8 8zm16-30.308v-35.384l58.517-4.183a95.476 95.476 0 0 0 -2.181 13.875h-24.336v16h24.336a95.476 95.476 0 0 0 2.181 13.875zm72-17.692a79.953 79.953 0 0 1 130.6-61.913l-17.08 17.08a55.972 55.972 0 0 0 -78.352 78.352l-17.08 17.08a79.623 79.623 0 0 1 -18.088-50.599zm80 9.625-6.806-2.819-2.819-6.806 2.819-6.806 6.806-2.819 6.806 2.819 2.819 6.806-2.819 6.806zm11.052-31.991-3.052-1.264v-15.565a39.756 39.756 0 0 1 14.042 5.839zm-19.052-1.264-3.052 1.264-10.99-10.99a39.756 39.756 0 0 1 14.042-5.839zm-25.356 1.588 10.99 10.99-1.264 3.052h-15.565a39.756 39.756 0 0 1 5.839-14.042zm9.726 30.042 1.264 3.052-10.99 10.99a39.756 39.756 0 0 1 -5.839-14.042zm12.578 14.366 3.052 1.264v15.57a39.756 39.756 0 0 1 -14.042-5.839zm19.052 1.264 3.052-1.264 10.99 10.99a39.756 39.756 0 0 1 -14.042 5.844zm14.366-12.578 1.264-3.052h15.57a39.756 39.756 0 0 1 -5.839 14.042zm1.264-19.052-1.264-3.052 10.99-10.99a39.756 39.756 0 0 1 5.844 14.042zm-6.408 112h-34.444l-1.643-9.866a96.294 96.294 0 0 0 37.73 0zm-17.222-24a79.623 79.623 0 0 1 -50.6-18.087l17.08-17.08a55.889 55.889 0 0 0 67.038 0l17.08 17.08a79.623 79.623 0 0 1 -50.598 18.087zm61.913-29.4-17.08-17.08a55.889 55.889 0 0 0 0-67.038l17.08-17.08a79.82 79.82 0 0 1 0 101.2zm31.57-28.724a95.476 95.476 0 0 0 2.181-13.876h24.336v-16h-24.336a95.476 95.476 0 0 0 -2.181-13.875l58.517 4.183v35.384zm82.517 34.124a8.009 8.009 0 0 1 -8-8v-96a8.009 8.009 0 0 1 8-8h16v24a8 8 0 0 0 -8 8v48a8 8 0 0 0 8 8v24zm40 168a8.009 8.009 0 0 1 -8-8v-184h16v184a8.009 8.009 0 0 1 -8 8z"/></svg>